<svg version="1.1" xmlns="http://www.w3.org/2000/svg" xmlns:xlink="http://www.w3.org/1999/xlink" width="265.03093" height="88" viewBox="0,0,265.03093,88"><defs><linearGradient x1="302.29988" y1="176.17408" x2="302.29988" y2="220.7125" gradientUnits="userSpaceOnUse" id="color-1"><stop offset="0" stop-color="#120037"/><stop offset="1" stop-color="#00dfff"/></linearGradient><linearGradient x1="132.8974" y1="143.2457" x2="132.8974" y2="211.22581" gradientUnits="userSpaceOnUse" id="color-2"><stop offset="0" stop-color="#120037"/><stop offset="1" stop-color="#00dfff"/></linearGradient><linearGradient x1="199.22409" y1="200" x2="199.22409" y2="208.41876" gradientUnits="userSpaceOnUse" id="color-3"><stop offset="0" stop-color="#120037"/><stop offset="1" stop-color="#00dfff"/></linearGradient><linearGradient x1="178.93419" y1="195.1" x2="178.93419" y2="201.514" gradientUnits="userSpaceOnUse" id="color-4"><stop offset="0" stop-color="#120037"/><stop offset="1" stop-color="#00dfff"/></linearGradient><linearGradient x1="180.95" y1="167.57988" x2="180.95" y2="178.5" gradientUnits="userSpaceOnUse" id="color-5"><stop offset="0" stop-color="#120037"/><stop offset="1" stop-color="#00dfff"/></linearGradient><linearGradient x1="258.60858" y1="137.11613" x2="258.60858" y2="161.5" gradientUnits="userSpaceOnUse" id="color-6"><stop offset="0" stop-color="#120037"/><stop offset="1" stop-color="#00dfff"/></linearGradient><linearGradient x1="261.00037" y1="156.87388" x2="261.00037" y2="211.16185" gradientUnits="userSpaceOnUse" id="color-7"><stop offset="0" stop-color="#120037"/><stop offset="1" stop-color="#00dfff"/></linearGradient><linearGradient x1="270.10938" y1="193.65886" x2="270.10938" y2="224.7" gradientUnits="userSpaceOnUse" id="color-8"><stop offset="0" stop-color="#120037"/><stop offset="1" stop-color="#00dfff"/></linearGradient></defs><g transform="translate(-107.99481,-136.9)"><g data-paper-data="{&quot;isPaintingLayer&quot;:true}" fill-rule="nonzero" stroke="none" stroke-width="1" stroke-linecap="butt" stroke-linejoin="miter" stroke-miterlimit="10" stroke-dasharray="" stroke-dashoffset="0" style="mix-blend-mode: normal"><g><path d="M314.9,176.2c0,0 3.5,24.4 -18.8,44.2c-0.6,0.5 -1.4,0.4 -1.4,-0.3c0,-6 -0.3,-27 -5.2,-29.2c7.5,-10.9 16,-15.1 25.4,-14.7z" fill="url(#color-1)"/><path d="M290.6,191.9c0.5,0.6 1.1,1.7 1.6,3c0.3,0.7 0.5,1.4 0.7,2.2c0.2,0.8 0.4,1.6 0.5,2.5c0.2,0.9 0.3,1.8 0.4,2.7c0.1,0.9 0.2,1.9 0.3,2.8c0.2,1.8 0.3,3.7 0.4,5.5c0.1,1.7 0.2,3.4 0.2,4.8c0,2.8 0,4.7 0,4.7c0,0 -0.2,-1.9 -0.4,-4.7c-0.1,-1.4 -0.3,-3 -0.4,-4.8c-0.1,-1.7 -0.2,-3.6 -0.4,-5.5c-0.3,-3.8 -0.7,-7.5 -1.6,-10.2c-0.4,-1.4 -0.9,-2.4 -1.4,-3.1c-0.4,-0.7 -0.8,-1 -0.8,-1c0,0 0.4,0.3 0.9,1.1z" fill="#4e6f7d"/><path d="M315.4,178.2c0,0.6 0.1,1.5 0.1,2.4c0,0.5 0,1 0,1.5c0,0.6 -0.1,1.1 -0.1,1.7c-0.1,1.1 -0.2,2.4 -0.4,3.7c-0.2,1.3 -0.4,2.7 -0.8,4.1c-0.1,0.7 -0.3,1.4 -0.5,2.1c-0.2,0.7 -0.5,1.5 -0.7,2.2c-0.2,0.4 -0.3,0.7 -0.4,1.1l-0.4,1.1c-0.3,0.8 -0.6,1.5 -0.9,2.2c-0.7,1.5 -1.4,2.8 -2.1,4.2c-0.8,1.3 -1.5,2.6 -2.3,3.8c-0.9,1.2 -1.7,2.3 -2.5,3.4c-0.8,1.1 -1.7,2 -2.4,2.9c-0.8,0.9 -1.5,1.7 -2.2,2.3c-0.7,0.7 -1.3,1.2 -1.8,1.7c-1,1 -1.7,1.4 -1.7,1.4c0,0 0.6,-0.5 1.5,-1.5c0.5,-0.5 1.1,-1.1 1.7,-1.8c0.6,-0.7 1.3,-1.5 2,-2.4c0.7,-0.9 1.6,-1.8 2.3,-2.9c0.8,-1.1 1.6,-2.2 2.4,-3.4c0.8,-1.2 1.5,-2.5 2.3,-3.8c0.7,-1.3 1.4,-2.7 2,-4.1c0.3,-0.7 0.6,-1.4 0.9,-2.1l0.4,-1.1c0.2,-0.4 0.3,-0.7 0.4,-1.1c0.2,-0.7 0.5,-1.4 0.7,-2.1c0.3,-0.7 0.4,-1.4 0.6,-2.1c0.4,-1.4 0.6,-2.8 0.9,-4.1c0.2,-1.3 0.4,-2.6 0.5,-3.7c0.1,-1.1 0.2,-2.2 0.2,-3.1c0,-0.9 0,-1.7 0,-2.4c-0.1,-1.3 -0.2,-2.1 -0.2,-2.1c0,0 0.2,0.7 0.5,2z" fill="#4e6f7d"/></g><g><path d="M157.4,189.5c-6.3,-0.1 -11.4,2.8 -20.7,10.6c-7.3,6.2 -15.4,9.4 -23.1,11.1c-1.1,0.2 -1.9,-0.8 -1.3,-1.7c4.9,-6.9 12.1,-21.8 11.7,-29.3c-0.3,-6.1 -0.2,-12.9 -7.4,-22.8c-2.8,-3.9 -7.3,-9.8 -8.5,-12.5c-0.4,-0.9 0.4,-1.9 1.4,-1.6c17,5.5 27.4,19.3 32.9,27.4c5.8,8.4 10,10.6 15.4,10.6" fill="url(#color-2)"/><path d="M153.1,180.3c-0.4,-0.1 -1,-0.3 -1.8,-0.6c-0.8,-0.3 -1.7,-0.8 -2.6,-1.5c-0.9,-0.7 -1.8,-1.6 -2.8,-2.6c-0.5,-0.5 -1,-1.1 -1.4,-1.7c-0.4,-0.6 -0.9,-1.2 -1.3,-1.9c-0.9,-1.3 -1.9,-2.6 -2.9,-4c-2.1,-2.7 -4.4,-5.5 -6.9,-8.2c-1.3,-1.4 -2.6,-2.7 -3.9,-3.9c-1.3,-1.3 -2.7,-2.4 -4,-3.5c-1.3,-1.1 -2.6,-2.1 -3.9,-3c-1.3,-0.9 -2.6,-1.7 -3.8,-2.4c-2.4,-1.4 -4.4,-2.5 -5.9,-3.1c-0.7,-0.3 -1.3,-0.6 -1.7,-0.7c-0.4,-0.1 -0.6,-0.2 -0.6,-0.2c0,0 0.2,0.1 0.6,0.2c0.4,0.1 1,0.2 1.8,0.5c1.5,0.5 3.7,1.3 6.2,2.6c2.5,1.3 5.3,3 8.1,5.1c1.4,1.1 2.8,2.3 4.1,3.5c1.4,1.2 2.7,2.6 4,3.9c1.2,1.4 2.4,2.8 3.6,4.2c1.2,1.4 2.3,2.9 3.3,4.3c1.1,1.4 2,2.8 2.8,4.2c0.4,0.7 0.8,1.4 1.2,2c0.3,0.6 0.8,1.2 1.2,1.7c0.4,0.6 0.9,1 1.3,1.5c0.4,0.5 0.8,0.9 1.2,1.3c0.8,0.7 1.6,1.2 2.3,1.6c1.5,0.7 2.3,1.1 2.3,1.1c0,0 -0.2,-0.1 -0.5,-0.4z" fill="#4e6f7d"/><path d="M111.7,150.3c1.1,1.4 2.7,3.4 4.6,5.8c1,1.2 2,2.5 3,4c1.1,1.5 2,3.1 2.8,4.9c0.8,1.8 1.5,3.7 1.9,5.7c0.5,2 0.7,4.1 0.8,6.2c0,2.1 -0.1,4.2 -0.4,6.2c-0.2,2.1 -0.7,4.1 -1.3,5.9c-1.1,3.7 -2.7,7 -4.1,9.7c-1.4,2.7 -2.8,4.9 -3.8,6.4c-0.5,0.7 -0.9,1.3 -1.2,1.7c-0.3,0.4 -0.4,0.6 -0.4,0.6c0,0 0.5,-0.9 1.4,-2.5c0.8,-1.6 2,-3.8 3.3,-6.6c1.3,-2.7 2.7,-6.1 3.7,-9.7c0.5,-1.8 0.9,-3.7 1.2,-5.7c0.3,-2 0.4,-4 0.3,-6c-0.1,-2 -0.3,-4 -0.7,-5.9c-0.4,-1.9 -1,-3.8 -1.7,-5.5c-0.7,-1.7 -1.6,-3.3 -2.5,-4.8c-0.9,-1.5 -1.8,-2.8 -2.7,-4.1c-1.8,-2.5 -3.2,-4.6 -4.2,-6.1c-0.5,-0.8 -0.9,-1.4 -1.1,-1.8c-0.3,-0.4 -0.4,-0.6 -0.4,-0.6c0,0 0.6,0.9 1.5,2.2z" fill="#4e6f7d"/><path d="M150.4,190.9c-1,0.4 -2.5,1.3 -4.1,2.5c-1.6,1.2 -3.5,2.6 -5.5,4.2c-2,1.5 -4.1,3.2 -6.3,4.8c-1.1,0.7 -2.3,1.5 -3.4,2.2c-1.1,0.8 -2.3,1.4 -3.4,2c-0.6,0.2 -1.1,0.5 -1.7,0.8c-0.5,0.2 -1.1,0.5 -1.6,0.7c-1.1,0.5 -2.1,0.9 -3.1,1.2c-1,0.4 -1.9,0.6 -2.7,0.8c-0.8,0.2 -1.5,0.4 -2.1,0.5c-1.1,0.2 -1.8,0.3 -1.8,0.3c0,0 0.7,-0.3 1.8,-0.6c0.6,-0.2 1.2,-0.4 2,-0.7c0.7,-0.3 1.6,-0.6 2.5,-1c0.9,-0.4 1.9,-0.9 2.9,-1.4c1,-0.5 2.1,-1.1 3.2,-1.7c1.1,-0.6 2.2,-1.3 3.3,-2c1.1,-0.8 2.2,-1.5 3.3,-2.3c2.2,-1.6 4.3,-3.2 6.4,-4.7c2.1,-1.5 4,-2.9 5.8,-3.9c1.8,-1 3.4,-1.7 4.5,-2.1c0.5,-0.2 1,-0.3 1.3,-0.4c0.3,-0.1 0.5,-0.1 0.5,-0.1c0,0 -0.6,0.2 -1.8,0.9z" fill="#4e6f7d"/></g><g><g><path d="M208.8,205c-7.4,0 -14.5,3 -17.8,3.4c-3.3,0.4 0.7,-5.7 -1,-8.4" fill="url(#color-3)"/><path d="M203.4,205.5c-0.6,0.2 -1.4,0.5 -2.3,0.8c-0.9,0.3 -2,0.6 -3.2,1c-1.2,0.4 -2.5,0.8 -3.8,1.1c-0.7,0.1 -1.4,0.3 -2,0.4c-0.4,0.1 -0.7,0.2 -1.1,0.2c-0.4,0 -0.8,0 -1.3,-0.3c-0.5,-0.3 -0.7,-0.9 -0.7,-1.3c0,-0.4 0,-0.7 0.1,-1c0.2,-0.5 0.4,-1 0.5,-1.5c0.5,-1.9 0.8,-3.2 0.8,-3.2c0,0 0.1,1.4 -0.1,3.4c0,0.5 -0.1,1.1 -0.2,1.6c-0.1,0.5 0,1 0.1,1c0.1,0.2 0.8,0.1 1.4,-0.1c0.6,-0.2 1.3,-0.3 1.9,-0.5c1.3,-0.3 2.6,-0.6 3.8,-0.9c1.3,-0.2 2.4,-0.4 3.4,-0.6c1,-0.2 1.8,-0.3 2.4,-0.3c0.6,0 0.9,0 0.9,0c0,0 -0.3,0.1 -0.6,0.2z" fill="#648f9e"/></g><g><path d="M186.2,199c-5.6,0 -10.9,2.3 -13.5,2.5c-2.5,0.3 0.5,-4.3 -0.8,-6.4" fill="url(#color-4)"/><path d="M182.1,199.6c-0.4,0.2 -1,0.5 -1.8,0.8c-1.5,0.6 -3.6,1.4 -5.8,1.8c-0.5,0.1 -1.1,0.2 -1.7,0.2c-0.3,0 -0.6,0 -1.1,-0.3c-0.1,-0.1 -0.1,-0.1 -0.2,-0.2c-0.1,-0.1 0,0 -0.1,-0.1c0,-0.1 -0.1,-0.1 -0.1,-0.2c-0.1,-0.2 -0.2,-0.5 -0.2,-0.6c-0.1,-0.6 0.1,-1.1 0.2,-1.6c0.2,-0.5 0.3,-0.9 0.4,-1.3c0.2,-0.8 0.3,-1.4 0.3,-1.9c0,-0.4 -0.1,-0.7 -0.1,-0.7c0,0 0.2,0.2 0.4,0.7c0.1,0.5 0.3,1.3 0.2,2.1c0,0.4 0,0.8 -0.1,1.3c0,0.5 -0.1,1 0,1.3c0,0.1 0,0.1 0,0.1l0.1,0.1c-0.2,-0.2 -0.1,-0.1 -0.1,-0.1v0c0,0 0.2,0 0.4,0c0.5,0 1,-0.1 1.5,-0.2c1.1,-0.2 2.1,-0.5 3.1,-0.7c0.9,-0.3 1.9,-0.5 2.7,-0.6c0.8,-0.2 1.5,-0.3 2,-0.3c0.5,0 0.8,0 0.8,0c0,0 -0.2,0.1 -0.8,0.4z" fill="#648f9e"/></g><g><path d="M171.3,178.5c3.4,-1.2 5.1,-4.8 5.1,-7c0,-2.2 -2,-3.7 0.2,-3.9c3.6,-0.4 9.6,5.3 14,5.1" fill="url(#color-5)"/><path d="M188.3,172.4c-0.3,-0.1 -0.8,-0.3 -1.4,-0.5c-1.2,-0.4 -2.7,-1.1 -4.2,-1.9c-1.4,-0.9 -2.9,-1.6 -4.1,-2c-1.1,-0.4 -2,-0.4 -2,-0.4c0,0 0.2,0 0.6,0c0.3,0 0.9,0 1.5,0.2c0.7,0.2 1.4,0.4 2.1,0.7c0.7,0.3 1.5,0.7 2.2,1.1c1.5,0.8 3,1.5 4.1,2.1c0.6,0.3 1.1,0.6 1.4,0.7c0.3,0.1 0.5,0.2 0.5,0.2c0,0 -0.2,0 -0.7,-0.2z" fill="#4e6f7d"/><path d="M174.8,175.5c0.3,-0.7 0.8,-1.5 1,-2.4c0.1,-0.4 0.2,-0.9 0.2,-1.3c0,-0.4 0,-0.8 0,-1.2c0,-0.4 0,-0.7 -0.1,-0.9c0,-0.2 0,-0.3 0,-0.3c0,0 0,0.1 0.1,0.3c0.1,0.2 0.2,0.4 0.3,0.8c0.1,0.4 0.2,0.8 0.2,1.3c0,0.2 0,0.5 0,0.7c0,0.2 0,0.5 -0.1,0.7c-0.3,1 -0.8,1.8 -1.3,2.4c-0.4,0.6 -0.8,0.9 -0.8,0.9c0,0 0.3,-0.4 0.5,-1z" fill="#4e6f7d"/></g><g><path d="M238.1,161.5c6.1,-2.8 6.5,-11.7 3.5,-17.5c-3,-5.8 -6.1,-5.7 -4.2,-6.2c14.8,-4.1 31,11.4 33.8,15.6c2.8,4.2 6.2,4.3 9.2,3.9" fill="url(#color-6)"/><path d="M276.6,157c-0.3,0 -0.8,0 -1.4,-0.2c-1.2,-0.3 -2.6,-1.5 -4,-3c-0.7,-0.8 -1.4,-1.6 -2.2,-2.5c-0.8,-0.9 -1.7,-1.7 -2.6,-2.6c-1.9,-1.7 -4,-3.4 -6.2,-4.9c-2.2,-1.5 -4.6,-2.8 -6.9,-3.8c-2.3,-1 -4.5,-1.7 -6.5,-2.1c-2,-0.4 -3.7,-0.6 -4.9,-0.6c-0.6,0 -1.1,0 -1.4,0c-0.3,0 -0.5,0 -0.5,0c0,0 0.2,-0.1 0.5,-0.1c0.3,-0.1 0.8,-0.2 1.4,-0.2c0.6,-0.1 1.4,-0.1 2.2,-0.1c0.8,0 1.8,0.1 2.8,0.2c2.1,0.3 4.5,0.8 6.9,1.8c1.2,0.5 2.4,1 3.6,1.7c1.2,0.6 2.3,1.3 3.5,2.1c2.3,1.6 4.5,3.4 6.3,5.2c0.9,0.9 1.7,1.9 2.5,2.8c0.7,0.9 1.4,1.8 2,2.6c0.6,0.8 1.2,1.5 1.8,2.1c0.6,0.6 1.2,1 1.7,1.2c0.5,0.3 1,0.3 1.3,0.4c0.3,0.1 0.5,0.1 0.5,0.1c0,0 -0.2,0 -0.4,-0.1z" fill="#4e6f7d"/><path d="M240.5,159.7c0.4,-0.5 0.9,-1.2 1.3,-2.2c0.3,-0.5 0.4,-1 0.6,-1.6c0.2,-0.5 0.3,-1.2 0.4,-1.8c0.1,-0.6 0.1,-1.3 0.1,-2c0,-0.7 -0.1,-1.4 -0.2,-2.1c-0.1,-0.7 -0.2,-1.4 -0.3,-2.1c-0.2,-0.7 -0.3,-1.4 -0.5,-2c-0.3,-1.3 -0.9,-2.4 -1.4,-3.3c-0.6,-0.9 -1.1,-1.6 -1.5,-2.1c-0.4,-0.5 -0.6,-0.8 -0.6,-0.8c0,0 0.3,0.2 0.8,0.6c0.5,0.4 1.2,1 1.9,1.9c0.7,0.8 1.4,2 1.9,3.3c0.5,1.3 0.8,2.8 1,4.3c0,0.7 0.1,1.5 0.1,2.2c0,0.8 -0.1,1.5 -0.2,2.2c-0.3,1.4 -0.8,2.6 -1.4,3.6c-0.3,0.5 -0.6,0.9 -0.9,1.2c-0.4,0.3 -0.7,0.6 -0.9,0.8c-0.2,0.2 -0.5,0.3 -0.6,0.4c-0.1,0.1 -0.2,0.1 -0.2,0.1c0,0 0.3,-0.2 0.6,-0.6z" fill="#4e6f7d"/></g><g><g><g><path d="M350,191.8c-3.6,11.5 -54.8,21.4 -105.9,19c-51.2,-2.4 -77.4,-19.5 -87.7,-21.4c-10.3,-1.9 -9.1,-6.7 -1.2,-7.9c22.8,-3.4 69.4,-23.8 123.8,-24.6c54.3,-0.8 95.2,17 94,22.6c-1,4.3 -23,12.3 -23,12.3z" fill="url(#color-7)"/><path d="M161.8,190.1c5.4,-0.5 4.6,3.5 9.8,2.4c5.2,-1.1 9,1.9 13.3,3.3c4.3,1.4 8.7,-0.8 13.3,-0.8c4.6,0 5.4,4.1 9,4.1c3.5,0 9,3 13.3,4.3c4.3,1.4 12.8,-5.2 15.5,-6.2c2.7,-1.1 6.8,-0.3 9.8,0.5c3,0.8 7.1,-3.5 14.9,-1.4c7.9,2.2 29.1,14.9 33.9,6.8c4.8,-8.1 16,-11.7 19.3,-11.7c3.3,0 3.3,-0.8 5.2,-1.9c1.9,-1.1 6,4.1 8.1,0.3c2.2,-3.8 6.2,-1.4 8.7,-1.1c2.4,0.3 6.5,-5.4 13.3,-6.2c6.8,-0.8 13,0.5 16.8,-1.4c2.3,-1.2 4.2,-2.1 6.8,-2.7c0.2,0.4 0.2,0.8 0.2,1.1c-1,4.3 -23,12.3 -23,12.3c-3.6,11.5 -54.8,21.4 -105.9,19c-46.1,-2.1 -71.9,-16.2 -84.1,-20.4c0.5,-0.1 1.1,-0.3 1.8,-0.3z" fill="#aedeeb"/><path d="M367.6,174.2c-0.7,-0.4 -1.7,-0.9 -3.1,-1.5c-1.4,-0.6 -3.1,-1.4 -5,-2.1c-2,-0.8 -4.2,-1.6 -6.6,-2.4c-2.4,-0.8 -5.1,-1.6 -7.9,-2.4c-2.8,-0.8 -5.8,-1.5 -8.9,-2.3c-1.5,-0.4 -3.1,-0.7 -4.7,-1.1c-1.6,-0.3 -3.3,-0.7 -4.9,-1c-3.3,-0.6 -6.6,-1.2 -10,-1.6c-3.4,-0.5 -6.8,-0.9 -10.1,-1.2c-3.3,-0.4 -6.6,-0.6 -9.8,-0.8c-3.2,-0.1 -6.3,-0.3 -9.2,-0.4c-2.9,-0.1 -5.6,-0.1 -8.2,-0.1c-5.1,0.1 -9.3,0.1 -12.3,0.3c-3,0.2 -4.7,0.3 -4.7,0.3c0,0 1.7,-0.2 4.7,-0.5c1.5,-0.1 3.3,-0.3 5.4,-0.4c2.1,-0.1 4.4,-0.2 7,-0.3c2.6,-0.1 5.4,-0.1 8.3,-0.1c2.9,0 6,0 9.2,0.2c3.2,0.2 6.5,0.4 9.9,0.7c3.3,0.3 6.7,0.6 10.1,1.1c3.4,0.5 6.8,1.1 10.1,1.7c1.7,0.3 3.3,0.7 4.9,1c1.7,0.4 3.2,0.7 4.8,1.1c3.1,0.8 6.1,1.6 8.9,2.5c2.8,0.9 5.4,1.8 7.8,2.7c2.4,0.9 4.6,1.8 6.5,2.6c1.9,0.8 3.6,1.6 4.9,2.3c1.3,0.7 2.3,1.3 3,1.7c0.6,0.4 1,0.6 1,0.6c0,0 -0.4,-0.2 -1.1,-0.6z" fill="#4e6f7d"/><path d="M247.2,159.6c-1.8,0.3 -4.5,0.8 -7.6,1.4c-3.1,0.6 -6.8,1.4 -10.7,2.3c-4,0.9 -8.1,1.8 -12.3,2.8c-4.2,0.9 -8.4,1.9 -12.3,2.8c-3.9,0.9 -7.5,1.8 -10.6,2.6c-3.1,0.8 -5.7,1.5 -7.5,2c-1.8,0.5 -2.8,0.8 -2.8,0.8c0,0 1,-0.4 2.8,-1c1.8,-0.6 4.3,-1.6 7.4,-2.5c3.1,-1 6.7,-2.1 10.6,-3.1c1.9,-0.5 3.9,-1 6,-1.5c2,-0.5 4.1,-1 6.2,-1.5c4.2,-1 8.4,-1.9 12.3,-2.7c3.9,-0.8 7.6,-1.4 10.8,-1.9c3.1,-0.5 5.8,-0.8 7.7,-0.9c1,-0.1 1.7,-0.1 2.2,-0.1c0.5,0 0.8,0 0.8,0c0,0 -1,0.1 -3,0.5z" fill="#4e6f7d"/><path d="M331.5,203c-1,0.3 -2.3,0.7 -4.1,1.2c-1.8,0.4 -3.9,1 -6.4,1.6c-2.5,0.7 -5.3,1.2 -8.4,1.8c-3.1,0.6 -6.4,1.1 -10,1.6c-3.6,0.5 -7.4,0.9 -11.3,1.3c-7.8,0.8 -16.2,1.2 -24.6,1.5c-8.4,0.2 -16.8,-0.1 -24.6,-0.6c-3.9,-0.3 -7.7,-0.6 -11.3,-1c-3.6,-0.4 -7,-0.8 -10.1,-1.3c-1.6,-0.2 -3.1,-0.4 -4.5,-0.7c-1.4,-0.3 -2.7,-0.5 -4,-0.8c-1.3,-0.3 -2.4,-0.5 -3.5,-0.8c-1.1,-0.2 -2.1,-0.4 -3,-0.7c-0.9,-0.2 -1.7,-0.4 -2.4,-0.6c-0.7,-0.3 -1.2,-0.4 -1.7,-0.6c-0.9,-0.3 -1.4,-0.5 -1.4,-0.5c0,0 0.6,0.1 1.5,0.4c0.4,0.2 1,0.3 1.7,0.5c0.7,0.1 1.5,0.3 2.4,0.5c0.9,0.2 1.9,0.4 3,0.6c1.1,0.2 2.2,0.4 3.5,0.6c1.2,0.2 2.6,0.4 4,0.6c1.5,0.2 2.9,0.4 4.5,0.6c3.1,0.4 6.5,0.7 10.1,1c3.6,0.3 7.4,0.6 11.3,0.8c7.8,0.4 16.2,0.7 24.5,0.4c8.3,-0.2 16.7,-0.6 24.5,-1.3c3.9,-0.3 7.6,-0.7 11.2,-1.1c3.5,-0.4 6.9,-0.9 10,-1.4c1.5,-0.3 3,-0.6 4.4,-0.8c1.4,-0.2 2.8,-0.4 4,-0.7c2.5,-0.5 4.6,-1 6.4,-1.4c1.8,-0.4 3.1,-0.8 4.1,-1c1,-0.3 1.5,-0.4 1.5,-0.4c0,0 -0.5,0.1 -1.3,0.7z" fill="#648f9e"/><path d="M191.3,202.2c-0.7,-0.1 -1.6,-0.3 -2.5,-0.6c-0.9,-0.3 -1.8,-0.6 -2.8,-0.9c-0.9,-0.4 -1.9,-0.7 -2.8,-1c-0.9,-0.3 -1.7,-0.6 -2.4,-0.9c-1.4,-0.6 -2.3,-1 -2.3,-1c0,0 0.9,0.3 2.4,0.7c0.7,0.2 1.6,0.4 2.5,0.7c0.9,0.3 1.8,0.6 2.8,0.9c0.9,0.3 1.9,0.6 2.8,0.9c0.9,0.3 1.7,0.6 2.4,0.8c1.4,0.5 2.4,0.8 2.4,0.8c0,0 -1,-0.2 -2.5,-0.4z" fill="#648f9e"/><path d="M172.1,195.6c-0.7,-0.3 -1.6,-0.6 -2.6,-1c-1,-0.4 -2,-0.8 -3,-1.2c-1,-0.5 -2.1,-0.9 -3,-1.3c-1,-0.4 -1.8,-0.8 -2.6,-1.1c-0.7,-0.3 -1.4,-0.6 -1.8,-0.8c-0.4,-0.2 -0.7,-0.3 -0.7,-0.3c0,0 0.2,0.1 0.7,0.2c0.5,0.2 1.1,0.3 1.9,0.6c0.8,0.2 1.7,0.5 2.7,0.9c1,0.4 2,0.8 3,1.2c1,0.5 2.1,0.9 3,1.3c1,0.4 1.9,0.9 2.6,1.2c1.5,0.7 2.5,1.2 2.5,1.2c0,0 -1,-0.3 -2.7,-0.9z" fill="#648f9e"/></g><path d="M367.9,184.2c-1.2,0.7 -2.8,1.8 -4.8,2.9c-2,1.1 -4.4,2.4 -7.1,3.5c-2.7,1.1 -5.6,2.2 -8.8,2.6c-0.8,0.1 -1.6,0.2 -2.4,0.1c-0.8,0 -1.6,-0.1 -2.3,-0.1c-1.5,-0.1 -3,0 -4.4,0.1c-2.9,0.2 -5.5,0.5 -7.8,0.8c-2.3,0.3 -4.2,0.6 -5.5,0.8c-1.3,0.2 -2.1,0.3 -2.1,0.3c0,0 0.7,-0.2 2,-0.6c1.3,-0.3 3.1,-0.8 5.4,-1.3c1.2,-0.2 2.4,-0.5 3.7,-0.7c1.3,-0.2 2.7,-0.5 4.1,-0.6c1.5,-0.2 2.9,-0.3 4.5,-0.3c0.8,0 1.5,0.1 2.3,0.1c0.7,0 1.5,0 2.2,-0.1c1.4,-0.1 2.9,-0.5 4.3,-0.9c1.4,-0.4 2.8,-0.9 4.1,-1.4c2.7,-1.1 5.1,-2.1 7.2,-3.1c2.1,-1 3.8,-1.8 5,-2.4c1.2,-0.6 1.9,-0.9 1.9,-0.9c0,0 -0.6,0.5 -1.5,1.2z" fill="#648f9e"/><path d="M324.3,182.6c-0.66274,0 -1.2,-0.9402 -1.2,-2.1c0,-1.1598 0.53726,-2.1 1.2,-2.1c0.66274,0 1.2,0.9402 1.2,2.1c0,1.1598 -0.53726,2.1 -1.2,2.1z" fill="#212f33"/></g><path d="M302.2,180.7c-0.2,0.5 -0.3,1.3 -0.4,2.2c0,0.5 -0.1,1 -0.1,1.5c-0.1,0.5 -0.1,1 -0.1,1.6c0.1,0.5 0,1.1 0.1,1.7c0,0.6 0.1,1.2 0.2,1.8c0.1,0.6 0.2,1.1 0.4,1.7c0.1,0.6 0.3,1.2 0.5,1.7c0.1,0.5 0.4,1 0.6,1.5c0.2,0.5 0.5,0.9 0.7,1.3c0.2,0.4 0.4,0.8 0.6,1.1c0.2,0.3 0.4,0.6 0.5,0.8c0.3,0.4 0.5,0.7 0.5,0.7c0,0 -0.3,-0.2 -0.7,-0.6c-0.2,-0.2 -0.4,-0.4 -0.7,-0.7c-0.3,-0.3 -0.6,-0.6 -0.9,-1c-0.3,-0.4 -0.6,-0.8 -0.9,-1.3c-0.2,-0.4 -0.6,-0.9 -0.8,-1.5c-0.3,-0.6 -0.6,-1.2 -0.7,-1.8c-0.1,-0.6 -0.3,-1.3 -0.4,-1.9c-0.1,-0.6 -0.2,-1.3 -0.2,-1.9c-0.1,-0.7 0,-1.3 0,-1.9c0.1,-0.6 0.2,-1.2 0.3,-1.7c0.1,-0.5 0.3,-1 0.4,-1.5c0.1,-0.4 0.3,-0.8 0.4,-1.2c0.1,-0.3 0.3,-0.7 0.4,-0.9c0.2,-0.5 0.4,-0.8 0.4,-0.8c0,0 -0.1,0.3 -0.1,1.1z" fill="#4e6f7d"/><path d="M298.3,180.7c-0.2,0.5 -0.3,1.3 -0.4,2.2c0,0.5 -0.1,1 -0.1,1.5c-0.1,0.5 -0.1,1 -0.1,1.6c0.1,0.5 0,1.1 0.1,1.7c0,0.6 0.1,1.2 0.2,1.8c0.1,0.6 0.2,1.1 0.4,1.7c0.1,0.6 0.3,1.2 0.5,1.7c0.1,0.5 0.4,1 0.6,1.5c0.2,0.5 0.5,0.9 0.7,1.3c0.2,0.4 0.4,0.8 0.6,1.1c0.2,0.3 0.4,0.6 0.5,0.8c0.3,0.4 0.5,0.7 0.5,0.7c0,0 -0.3,-0.2 -0.7,-0.6c-0.2,-0.2 -0.4,-0.4 -0.7,-0.7c-0.3,-0.3 -0.6,-0.6 -0.9,-1c-0.3,-0.4 -0.6,-0.8 -0.9,-1.3c-0.2,-0.4 -0.6,-0.9 -0.8,-1.5c-0.3,-0.6 -0.6,-1.2 -0.7,-1.8c-0.1,-0.6 -0.3,-1.3 -0.4,-1.9c-0.1,-0.6 -0.2,-1.3 -0.2,-1.9c-0.1,-0.7 0,-1.3 0,-1.9c0.1,-0.6 0.2,-1.2 0.3,-1.7c0.1,-0.5 0.3,-1 0.4,-1.5c0.1,-0.4 0.3,-0.8 0.4,-1.2c0.1,-0.3 0.3,-0.7 0.4,-0.9c0.2,-0.5 0.4,-0.8 0.4,-0.8c0,0 -0.1,0.3 -0.1,1.1z" fill="#4e6f7d"/><path d="M293.3,180.7c-0.2,0.5 -0.3,1.3 -0.4,2.2c0,0.5 -0.1,1 -0.1,1.5c-0.1,0.5 -0.1,1 -0.1,1.6c0.1,0.5 0,1.1 0.1,1.7c0,0.6 0.1,1.2 0.2,1.8c0.1,0.6 0.2,1.1 0.4,1.7c0.1,0.6 0.3,1.2 0.5,1.7c0.1,0.5 0.4,1 0.6,1.5c0.2,0.5 0.5,0.9 0.7,1.3c0.2,0.4 0.4,0.8 0.6,1.1c0.2,0.3 0.4,0.6 0.5,0.8c0.3,0.4 0.5,0.7 0.5,0.7c0,0 -0.3,-0.2 -0.7,-0.6c-0.2,-0.2 -0.4,-0.4 -0.7,-0.7c-0.3,-0.3 -0.6,-0.6 -0.9,-1c-0.3,-0.4 -0.6,-0.8 -0.9,-1.3c-0.2,-0.4 -0.6,-0.9 -0.8,-1.5c-0.3,-0.6 -0.6,-1.2 -0.7,-1.8c-0.1,-0.6 -0.3,-1.3 -0.4,-1.9c-0.1,-0.6 -0.2,-1.3 -0.2,-1.9c-0.1,-0.7 0,-1.3 0,-1.9c0.1,-0.6 0.2,-1.2 0.3,-1.7c0.1,-0.5 0.3,-1 0.4,-1.5c0.1,-0.4 0.3,-0.8 0.4,-1.2c0.1,-0.3 0.3,-0.7 0.4,-0.9c0.2,-0.5 0.4,-0.8 0.4,-0.8c0,0 -0.1,0.3 -0.1,1.1z" fill="#4e6f7d"/><path d="M350.7,184.5c0,-0.1 -0.2,-0.3 -0.3,-0.4c-0.1,-0.2 -0.3,-0.3 -0.4,-0.5c-0.2,-0.1 -0.3,-0.3 -0.5,-0.5c-0.3,-0.4 -0.6,-0.8 -0.8,-1.2c-0.2,-0.4 -0.3,-0.7 -0.3,-0.7c0,0 0.4,-0.1 0.8,0.1c0.2,0.1 0.5,0.2 0.7,0.4c0.3,0.1 0.5,0.4 0.7,0.6c0.4,0.5 0.6,1.2 0.6,1.7c0,0.6 -0.3,0.8 -0.3,0.8c0,0 0,0 -0.2,-0.3z" fill="#4e6f7d"/></g></g><g><path d="M293.5,200.6c0,0 -13.6,22.7 -45.6,24.1c-0.9,0 -1.5,-0.6 -1,-1.2c4,-5 18,-22.6 15.4,-27.8c13.6,-4.1 23.6,-1.8 31.2,4.9z" fill="url(#color-8)"/><path d="M262.5,197.1c0,0.9 -0.2,2.2 -0.6,3.7c-0.3,0.7 -0.5,1.5 -0.9,2.3c-0.3,0.8 -0.7,1.7 -1.2,2.5c-0.5,0.8 -1,1.7 -1.5,2.5c-0.5,0.8 -1,1.7 -1.6,2.5c-0.5,0.9 -1.1,1.7 -1.7,2.5c-0.5,0.9 -1.1,1.6 -1.7,2.4c-1.1,1.5 -2.2,2.9 -3.2,4.1c-1,1.2 -1.8,2.1 -2.4,2.8c-0.5,0.6 -0.9,1 -0.9,1c0,0 0.2,-0.5 0.7,-1.2c0.5,-0.8 1.2,-1.8 2,-3.1c0.9,-1.3 1.8,-2.7 2.9,-4.3c1,-1.6 2.2,-3.2 3.3,-4.9c0.6,-0.8 1.1,-1.7 1.7,-2.5c0.6,-0.8 1.1,-1.6 1.6,-2.4c0.5,-0.8 1,-1.5 1.4,-2.3c0.5,-0.8 0.8,-1.5 1.1,-2.2c0.5,-1.3 0.9,-2.5 1,-3.4c0.1,-0.9 0,-1.4 0,-1.4c0,0 0.3,0.5 0,1.4z" fill="#4e6f7d"/><path d="M292.3,202.7c-0.4,0.6 -0.9,1.4 -1.5,2.2c-0.3,0.4 -0.7,0.8 -1,1.3c-0.4,0.5 -0.8,0.9 -1.2,1.4c-0.8,0.9 -1.8,1.9 -2.8,2.9c-1,0.9 -2.1,2 -3.4,2.9c-0.6,0.4 -1.2,0.9 -1.9,1.4c-0.6,0.5 -1.3,0.9 -2,1.4c-0.3,0.2 -0.6,0.5 -1,0.7l-1.1,0.6c-0.7,0.4 -1.5,0.8 -2.2,1.2c-1.6,0.8 -3.1,1.4 -4.6,2.1c-1.6,0.5 -3.1,1.1 -4.6,1.6c-1.5,0.4 -3,0.7 -4.4,1.1c-1.4,0.4 -2.8,0.5 -4,0.7c-1.3,0.2 -2.4,0.4 -3.4,0.4c-1,0.1 -1.9,0.2 -2.6,0.2c-1.5,0.1 -2.3,0.1 -2.3,0.1c0,0 0.9,-0.2 2.3,-0.4c0.7,-0.1 1.6,-0.2 2.6,-0.4c1,-0.1 2.1,-0.4 3.3,-0.7c0.6,-0.1 1.3,-0.3 1.9,-0.4c0.6,-0.2 1.3,-0.3 2,-0.5c1.4,-0.4 2.8,-0.9 4.3,-1.3c1.4,-0.6 2.9,-1.1 4.4,-1.7c1.4,-0.7 2.9,-1.4 4.4,-2.1c0.8,-0.4 1.5,-0.8 2.2,-1.2l1.1,-0.6c0.3,-0.2 0.7,-0.4 1,-0.6c0.7,-0.5 1.3,-0.9 2,-1.3c0.7,-0.5 1.3,-1 1.9,-1.4c1.3,-0.8 2.4,-1.8 3.5,-2.7c0.5,-0.5 1,-1 1.5,-1.4c0.5,-0.4 1,-0.9 1.4,-1.3c0.4,-0.5 0.8,-0.9 1.2,-1.3c0.4,-0.4 0.8,-0.8 1.1,-1.2c0.7,-0.7 1.2,-1.4 1.7,-2c0.4,-0.5 0.8,-1 1,-1.3c0.2,-0.3 0.3,-0.5 0.3,-0.5c0,0 -0.3,0.7 -1.1,2.1z" fill="#4e6f7d"/></g></g></g></svg>